<svg width="24" height="24" viewBox="0 0 24 24" fill="none" xmlns="http://www.w3.org/2000/svg">
<rect width="23.5" height="23.499" rx="8.26855" transform="matrix(-1 0 0 1 23.6875 0)" fill="#F2F7FC"/>
<path d="M11.9375 2C15.6641 2 18.6875 4.87766 18.6875 8.42188C18.6875 12.5 14.1875 18.9627 12.5352 21.1948C12.4666 21.2891 12.3767 21.3657 12.2728 21.4186C12.1689 21.4715 12.054 21.499 11.9375 21.499C11.821 21.499 11.7061 21.4715 11.6022 21.4186C11.4983 21.3657 11.4084 21.2891 11.3398 21.1948C9.6875 18.9636 5.1875 12.5033 5.1875 8.42188C5.1875 4.87766 8.21094 2 11.9375 2Z" stroke="#E80505" stroke-width="1.5" stroke-linecap="round" stroke-linejoin="round"/>
<path d="M11.9375 11.0154C10.7207 11.0154 9.73438 10.0291 9.73438 8.81241C9.73438 7.59571 10.7207 6.60938 11.9375 6.60938C13.1543 6.60938 14.1406 7.59571 14.1406 8.81241C14.1406 10.0291 13.1543 11.0154 11.9375 11.0154Z" stroke="#E80505" stroke-width="1.5" stroke-linecap="round" stroke-linejoin="round"/>
</svg>
