<svg width="25" height="22" viewBox="0 0 25 22" fill="none" xmlns="http://www.w3.org/2000/svg">
<rect width="24" height="21.36" rx="8.26855" transform="matrix(-1 0 0 1 24.2344 0)" fill="#F2F7FC"/>
<path d="M3.20437 6.65L12.2344 1L21.2644 6.65C21.8444 7 22.2344 7.63 22.2344 8.36V18.36C22.2344 19.46 21.3344 20.36 20.2344 20.36H4.23438C3.13437 20.36 2.23438 19.46 2.23438 18.36V8.36C2.23438 7.63 2.62437 7 3.20437 6.65ZM4.23438 18.36H20.2344V10.36L12.2344 15.36L4.23438 10.36V18.36ZM12.2344 13.36L20.2344 8.36L12.2344 3.36L4.23438 8.36L12.2344 13.36Z" fill="#FF9C1B"/>
</svg>
