<svg width="45" height="45" viewBox="0 0 45 45" fill="none" xmlns="http://www.w3.org/2000/svg">
<rect x="0.882812" y="0.5" width="44" height="44" rx="8" fill="#F2F7FC"/>
<rect x="10.8828" y="10.5" width="24" height="24" rx="8.26855" fill="#F2F7FC"/>
<path d="M26.8828 12.5H18.8828C18.3524 12.5 17.8437 12.7107 17.4686 13.0858C17.0935 13.4609 16.8828 13.9696 16.8828 14.5V30.5C16.8828 31.0304 17.0935 31.5391 17.4686 31.9142C17.8437 32.2893 18.3524 32.5 18.8828 32.5H26.8828C27.4132 32.5 27.922 32.2893 28.297 31.9142C28.6721 31.5391 28.8828 31.0304 28.8828 30.5V14.5C28.8828 13.9696 28.6721 13.4609 28.297 13.0858C27.922 12.7107 27.4132 12.5 26.8828 12.5ZM23.8828 31.5H21.8828V30.5H23.8828V31.5ZM26.8828 29.5H18.8828V15.5H26.8828V29.5Z" fill="url(#paint0_linear_27_15)"/>
<defs>
<linearGradient id="paint0_linear_27_15" x1="22.8828" y1="12.5" x2="22.8828" y2="32.5" gradientUnits="userSpaceOnUse">
<stop stop-color="#FF9A1A"/>
<stop offset="1" stop-color="#EC1C09"/>
</linearGradient>
</defs>
</svg>
